<?xml version="1.0" encoding="UTF-8"?>
<svg id="Capa_2" data-name="Capa 2" xmlns="http://www.w3.org/2000/svg" viewBox="0 0 3000 3000">
  <defs>
    <style>
      .cls-1, .cls-2 {
        fill: #fff;
      }

      .cls-2 {
        opacity: .14;
        stroke: #000;
        stroke-miterlimit: 10;
      }
    </style>
  </defs>
  <path class="cls-2" d="M1968.06,2062.03c-102.74,188.13-302.38,315.75-531.84,315.75-334.44,0-605.55-271.12-605.55-605.55,0-145.85,51.56-279.66,137.46-384.19-46.99,86.06-73.69,184.78-73.69,289.74,0,334.44,271.12,605.56,605.56,605.56,188.56,0,356.99-86.18,468.06-221.31Z"/>
  <path d="M1219.56,1057.06c1.93,0,1.93-3,0-3s-1.93,3,0,3h0Z"/>
  <g>
    <rect class="cls-1" x="0" y="2997.07" width="3000" height="2.93"/>
    <path class="cls-1" d="M1804.65,2075.1l-12.51-56.22c-45.61-162.11-256.83-277.79-382.65-378.7-139.99-112.27-254.64-238.52-295.29-419.14-41.6-184.87-2.77-374.19,54.79-550.78,5.54-.58,2.34,6.13,2.05,9.36-2.75,30.44-8.81,61.1-10.84,91.63-21.47,322.91,85.09,565.54,322.19,778.55,99.26,89.17,296.67,215.45,337.05,342.3,20.38,64.02,8.75,122.09-14.78,183Z"/>
    <path class="cls-1" d="M2012.65,1943.41c-4.55,4.58-5.15-.45-5.74-4.41-18.47-124.45-83.95-190.92-177.4-267.7-142.72-117.25-298.3-200.63-408.07-356.23-164.94-233.83-132.03-515.63-47.39-773.59,5.54-.58,2.34,6.13,2.05,9.36-3.1,34.33-8.57,68.73-10.99,103.19-13.4,302.94,77.81,536.71,297.41,742.15,102.08,95.5,325.36,239.93,364.64,370.35,18.32,60.83,6.73,118.77-14.51,176.89Z"/>
    <path class="cls-1" d="M1942.35,2127.81c-2.27,9.43-10.53,18.39-16.39,26.04-394.13,514.27-1219.85,111.74-1040.96-518.97,21.91-77.24,72.85-173.69,127.16-232.97,3.48-3.8,5.1-4.85,4.41,1.47-177.59,262.62-114.49,618.58,142.67,802.92,244.38,175.18,580.53,143.66,783.12-78.48Z"/>
    <path class="cls-1" d="M1951.17,1606.8c-5.5,1.28-6.97-3.06-10.26-5.82-26.9-22.52-78.07-75-93.79-105.32-17.46-33.66-22.19-71.57-13.15-108.33-45.7,8.37-89.89-10.63-111.31-52.67,22.48,8.47,43.92,11.27,68.09,7.99,49.52-6.71,84.07-58.83,129.6-60.89,11.49-.52,23.81,6.55,28.62,5.55,19.15-3.99,79.08-70.58,98.85-84.39l-93.16,139.59c-55.99,82.63-60.82,180.8-3.49,264.29Z"/>
  </g>
</svg>